<?xml version="1.0" standalone="no"?>
<!DOCTYPE svg PUBLIC "-//W3C//DTD SVG 20010904//EN"
 "http://www.w3.org/TR/2001/REC-SVG-20010904/DTD/svg10.dtd">
<svg version="1.0" xmlns="http://www.w3.org/2000/svg"
 width="500.000000pt" height="500.000000pt" viewBox="0 0 500.000000 500.000000"
 preserveAspectRatio="xMidYMid meet">

<g transform="translate(0.000000,500.000000) scale(0.100000,-0.100000)"
fill="#000000" stroke="none">
<path d="M1270 3944 c1 -42 34 -133 58 -156 18 -19 21 -19 50 -4 34 17 105
103 99 120 -5 14 -25 23 -97 40 -36 8 -75 18 -87 22 -20 6 -23 3 -23 -22z"/>
<path d="M2073 3895 c-18 -7 -47 -20 -65 -29 -18 -8 -43 -17 -55 -21 -27 -8
-197 -120 -278 -185 -96 -77 -217 -209 -249 -273 -36 -72 -91 -140 -140 -173
-21 -15 -36 -33 -36 -45 0 -18 52 -124 128 -259 14 -25 42 -77 63 -117 33 -62
195 -309 232 -353 24 -29 107 -79 121 -74 11 4 13 15 9 35 l-5 29 57 0 c101 0
150 -65 111 -147 -14 -30 -20 -34 -49 -31 -30 3 -32 1 -35 -34 -2 -21 4 -51
14 -69 22 -44 158 -205 251 -299 l74 -75 35 40 c20 22 55 62 80 89 24 27 44
53 44 57 0 14 36 11 48 -3 5 -7 13 -33 17 -58 9 -61 39 -121 76 -154 29 -26
31 -27 45 -9 13 17 15 17 37 -8 21 -23 25 -40 31 -146 9 -159 3 -187 -58 -266
-26 -34 -28 -42 -20 -75 8 -35 12 -37 51 -40 22 -2 58 4 78 12 21 9 50 16 65
16 55 0 190 58 262 113 25 19 49 36 56 38 27 10 162 144 158 156 -3 8 -2 12 3
9 11 -7 77 80 129 172 23 41 42 76 42 78 0 3 10 26 21 51 12 26 25 70 30 97 9
56 29 157 54 279 13 64 14 97 6 191 -5 62 -16 130 -24 152 -8 21 -20 59 -27
84 -7 25 -16 58 -21 74 -5 16 -9 39 -9 50 0 29 -54 137 -79 160 -12 11 -21 27
-21 38 0 10 -4 18 -10 18 -5 0 -10 6 -10 14 0 39 -156 203 -237 249 -42 23
-58 22 -82 -9 -16 -21 -21 -41 -21 -92 0 -60 -4 -71 -41 -128 -48 -75 -46 -99
10 -114 42 -11 61 -39 82 -123 6 -26 16 -50 20 -53 9 -5 53 23 97 61 43 38 83
55 104 44 47 -25 30 -75 -39 -115 -26 -14 -67 -40 -90 -55 -51 -35 -76 -37
-93 -5 l-13 25 -37 -26 c-37 -24 -90 -89 -90 -109 0 -6 -13 -22 -29 -37 -16
-14 -59 -71 -95 -126 -37 -56 -70 -101 -74 -101 -4 0 -20 -20 -36 -43 -52 -78
-121 -105 -185 -72 -33 16 -81 70 -81 89 0 8 -9 25 -20 39 -21 27 -44 107 -66
232 -7 44 -20 101 -29 127 -8 26 -15 54 -15 62 0 9 -4 16 -9 16 -5 0 -9 15 -9
33 1 49 -20 113 -48 146 -35 41 -114 198 -114 225 0 27 18 46 43 46 11 0 39
18 63 40 40 37 48 40 100 40 64 0 103 19 129 62 18 31 68 58 105 58 28 0 116
-46 123 -63 3 -8 -1 -86 -8 -173 -8 -88 -15 -162 -15 -166 0 -22 -43 -48 -78
-48 -78 0 -93 -72 -37 -178 14 -26 25 -54 25 -63 0 -9 8 -23 18 -32 36 -33 60
-21 157 76 111 111 119 124 99 161 -19 39 -19 39 31 141 55 109 57 139 14 154
-18 6 -49 11 -70 11 -40 0 -69 20 -69 49 0 10 -3 32 -6 47 -4 24 1 36 25 62
17 17 31 36 31 41 0 15 -24 29 -82 46 -63 18 -114 11 -150 -22 -15 -13 -39
-18 -111 -19 -160 -3 -245 -18 -315 -55 -56 -31 -225 -171 -310 -258 -44 -45
-146 -218 -174 -297 -13 -35 -27 -64 -33 -64 -6 0 -30 32 -53 72 l-43 72 41
83 c23 46 65 114 92 151 28 37 58 83 68 102 25 49 176 189 274 255 46 30 88
55 95 55 6 0 11 5 11 10 0 6 16 10 35 10 20 0 69 16 113 37 42 20 95 40 117
44 22 4 78 14 125 24 88 17 116 16 230 -11 241 -57 382 -124 493 -235 37 -37
95 -91 129 -121 34 -29 82 -74 107 -101 56 -60 69 -51 48 35 -9 35 -23 104
-32 153 -9 50 -23 104 -31 120 -14 31 -170 182 -264 256 -80 63 -89 64 -151
18 -29 -21 -55 -39 -58 -39 -3 0 -30 7 -60 15 -57 15 -235 19 -226 5 8 -13
-22 -20 -81 -20 -54 0 -74 15 -31 23 12 2 -5 5 -38 6 -33 1 -90 5 -126 9 -63
7 -69 11 -135 69 -77 69 -104 79 -151 58z m-204 -1082 c20 -16 62 -45 93 -65
59 -39 74 -68 46 -96 -22 -22 -52 -11 -143 51 -89 61 -106 84 -91 123 9 23 56
16 95 -13z m1535 -404 c14 -11 26 -28 26 -38 0 -9 5 -22 11 -28 9 -9 7 -21 -6
-50 -28 -60 -35 -63 -181 -63 -132 0 -132 0 -163 29 -42 39 -44 101 -4 143 27
28 27 28 159 28 118 0 134 -2 158 -21z m-306 -406 c15 -10 34 -24 42 -30 8 -7
40 -30 70 -51 32 -22 56 -46 58 -59 4 -25 -33 -54 -57 -45 -33 12 -192 124
-198 138 -9 24 14 64 37 64 11 0 33 -8 48 -17z m-468 -133 c0 -11 -7 -20 -15
-20 -15 0 -21 21 -8 33 12 13 23 7 23 -13z m283 -227 c54 -107 63 -132 54
-150 -13 -29 -45 -39 -63 -21 -22 22 -124 229 -124 253 0 27 18 45 46 45 19 0
33 -22 87 -127z"/>
<path d="M3612 1848 c-16 -24 -41 -65 -56 -93 -34 -65 -124 -212 -156 -255
-13 -19 -56 -67 -94 -107 -39 -41 -75 -86 -82 -102 -6 -15 -33 -44 -60 -63
-52 -38 -200 -112 -247 -123 -15 -4 -30 -11 -33 -16 -3 -5 -16 -9 -30 -9 -15
0 -24 -6 -24 -15 0 -28 -48 -92 -87 -115 -21 -13 -65 -49 -98 -81 l-60 -59
-50 9 c-56 10 -164 50 -186 68 -14 12 -165 52 -274 73 -33 6 -76 15 -95 20
-19 4 -64 14 -100 21 -36 6 -85 16 -110 21 -117 24 -155 26 -178 11 l-24 -15
22 -23 c25 -26 51 -38 130 -55 32 -7 78 -28 110 -50 81 -57 209 -119 290 -140
25 -7 54 -16 65 -20 64 -26 203 -42 318 -37 59 2 110 1 113 -4 3 -5 14 -9 25
-9 48 0 99 43 238 204 80 91 152 168 162 171 10 3 32 -1 48 -9 65 -34 116 -9
127 64 8 49 43 80 90 80 l34 0 0 -56 c0 -61 13 -94 36 -94 18 0 84 65 84 82 0
6 3 8 7 4 10 -9 94 85 86 97 -3 6 -1 7 5 3 6 -3 14 -1 19 6 7 13 8 16 11 47 1
8 5 12 8 8 10 -9 36 21 29 33 -4 6 -1 9 7 8 7 -2 12 3 10 10 -1 6 3 12 9 12 5
0 7 5 4 10 -3 6 -1 10 4 10 6 0 11 7 11 15 0 8 4 15 10 15 5 0 6 7 3 17 -4 11
-3 14 5 9 7 -4 12 -1 12 7 0 8 7 17 15 21 8 3 15 15 15 26 0 13 4 19 11 14 8
-4 9 1 4 16 -5 15 -4 20 4 16 7 -4 11 1 11 13 0 11 5 23 10 26 6 4 8 11 5 16
-4 5 -1 9 4 9 6 0 11 10 11 23 0 13 5 28 11 34 15 15 -7 204 -26 230 -12 16
-17 16 -36 5 -15 -10 -24 -11 -32 -3 -6 6 -23 11 -39 11 -21 0 -34 -10 -56
-42z"/>
<path d="M3295 975 c-5 -2 -23 -6 -39 -10 -27 -6 -22 -10 70 -56 71 -36 106
-48 124 -44 18 4 21 3 10 -4 -12 -8 -9 -12 13 -20 16 -6 32 -11 37 -11 5 0 25
-9 45 -20 38 -21 70 -26 80 -11 3 5 -7 12 -22 14 -16 2 -7 3 18 0 34 -2 48 1
52 11 10 24 -17 37 -64 30 -33 -4 -40 -3 -29 5 12 9 9 11 -14 11 -32 0 -127
40 -197 82 -44 26 -60 31 -84 23z m102 -71 c-3 -3 -12 -4 -19 -1 -8 3 -5 6 6
6 11 1 17 -2 13 -5z m40 -20 c-3 -3 -12 -4 -19 -1 -8 3 -5 6 6 6 11 1 17 -2
13 -5z m136 -51 c-7 -2 -19 -2 -25 0 -7 3 -2 5 12 5 14 0 19 -2 13 -5z"/>
</g>
</svg>
